HIERARCHY
ROOT Pelvis
{
	OFFSET 0.000000 0.000000 0.000000
	CHANNELS 6 Xposition Yposition Zposition Zrotation Yrotation Xrotation 
	JOINT Left_hip
	{
		OFFSET 0.069463 -0.088608 -0.009542
		CHANNELS 3 Zrotation Yrotation Xrotation
		JOINT Left_knee
		{
			OFFSET 0.030639 -0.359740 -0.005288
			CHANNELS 3 Zrotation Yrotation Xrotation
			JOINT Left_ankle
			{
				OFFSET -0.011068 -0.376034 -0.042462
				CHANNELS 3 Zrotation Yrotation Xrotation
				JOINT Left_foot
				{
					OFFSET 0.023192 -0.053321 0.111332
					CHANNELS 3 Zrotation Yrotation Xrotation
					End Site
					{
						OFFSET 0.000000 0.000000 0.000000
					}
				}
			}
		}
	}
	JOINT Right_hip
	{
		OFFSET -0.067438 -0.088025 -0.006263
		CHANNELS 3 Zrotation Yrotation Xrotation
		JOINT Right_knee
		{
			OFFSET -0.035962 -0.366229 -0.008063
			CHANNELS 3 Zrotation Yrotation Xrotation
			JOINT Right_ankle
			{
				OFFSET 0.013608 -0.375719 -0.040481
				CHANNELS 3 Zrotation Yrotation Xrotation
				JOINT Right_foot
				{
					OFFSET -0.021034 -0.045527 0.114617
					CHANNELS 3 Zrotation Yrotation Xrotation
					End Site
					{
						OFFSET 0.000000 0.000000 0.000000
					}
				}
			}
		}
	}
	JOINT Spine1
	{
		OFFSET -0.002610 0.101823 -0.019986
		CHANNELS 3 Zrotation Yrotation Xrotation
		JOINT Spine2
		{
			OFFSET 0.004114 0.128714 -0.000938
			CHANNELS 3 Zrotation Yrotation Xrotation
			JOINT Spine3
			{
				OFFSET 0.002191 0.048470 0.027684
				CHANNELS 3 Zrotation Yrotation Xrotation
				JOINT Neck
				{
					OFFSET -0.002856 0.198873 -0.044022
					CHANNELS 3 Zrotation Yrotation Xrotation
					JOINT Head
					{
						OFFSET 0.002981 0.062960 0.049860
						CHANNELS 3 Zrotation Yrotation Xrotation
						End Site
						{
							OFFSET 0.000000 0.000000 0.000000
						}
					}
				}
				JOINT Left_collar
				{
					OFFSET 0.073708 0.112550 -0.033440
					CHANNELS 3 Zrotation Yrotation Xrotation
					JOINT Left_shoulder
					{
						OFFSET 0.083291 0.030786 -0.008013
						CHANNELS 3 Zrotation Yrotation Xrotation
						JOINT Left_elbow
						{
							OFFSET 0.245601 -0.011792 -0.027873
							CHANNELS 3 Zrotation Yrotation Xrotation
							JOINT Left_wrist
							{
								OFFSET 0.232258 0.008622 -0.000487
								CHANNELS 3 Zrotation Yrotation Xrotation
								JOINT Left_palm
								{
									OFFSET 0.077300 -0.009457 -0.012851
									CHANNELS 3 Zrotation Yrotation Xrotation
									End Site
									{
										OFFSET 0.000000 0.000000 0.000000
									}
								}
							}
						}
					}
				}
				JOINT Right_collar
				{
					OFFSET -0.075339 0.110574 -0.037874
					CHANNELS 3 Zrotation Yrotation Xrotation
					JOINT Right_shoulder
					{
						OFFSET -0.086522 0.031207 -0.009986
						CHANNELS 3 Zrotation Yrotation Xrotation
						JOINT Right_elbow
						{
							OFFSET -0.237313 -0.011478 -0.019859
							CHANNELS 3 Zrotation Yrotation Xrotation
							JOINT Right_wrist
							{
								OFFSET -0.237599 0.007976 -0.003742
								CHANNELS 3 Zrotation Yrotation Xrotation
								JOINT Right_palm
								{
									OFFSET -0.076920 -0.006943 -0.009920
									CHANNELS 3 Zrotation Yrotation Xrotation
									End Site
									{
										OFFSET 0.000000 0.000000 0.000000
									}
								}
							}
						}
					}
				}
			}
		}
	}
}
MOTION
Frames: 12
Frame Time: 0.100000
0.000000 0.000000 0.000000 176.394778 31.832906 -25.840106 0.157069 4.000620 18.761576 1.546406 -14.195664 -3.872275 5.127416 4.866225 -4.126319 -10.537818 8.890627 -1.756553 -1.105573 -4.564416 22.686685 -1.983421 3.034011 -4.087442 -8.262399 -6.915480 -8.068166 14.631567 -4.553093 11.474121 0.828322 0.789881 5.446168 0.681973 -4.833362 8.208427 -0.547104 -3.247025 -0.805636 -1.277735 -15.999154 12.193142 -1.530688 -17.845975 1.966187 -31.826960 -0.195244 7.523608 -50.489675 -5.816140 8.387647 1.189574 -14.109526 16.361423 -14.918681 4.424939 -0.945434 -8.510994 -3.080039 -9.845124 32.972855 5.851272 4.501049 51.934738 3.264059 10.618453 -6.828786 12.146623 -1.266922 9.582259 -4.382211 -1.392759 11.124305 8.654532 -3.515868 
0.002240 0.000116 -0.001924 176.302057 32.473099 -26.440160 0.037703 4.148505 19.355885 1.974771 -14.465925 -4.216645 4.604206 4.548378 -3.959559 -10.471847 8.600227 -1.737762 -1.096756 -4.491288 23.314453 -2.091105 2.351748 -4.085518 -8.055929 -6.521520 -8.038879 14.696899 -5.269345 11.448185 0.896717 0.592473 5.867145 0.830814 -5.011342 8.141646 -0.439650 -3.417893 -0.914620 -1.366955 -16.447381 11.180717 -1.483076 -18.417481 0.668209 -31.902311 0.583916 7.227504 -51.094701 -5.839460 8.522238 2.060860 -15.852689 15.925510 -14.917560 4.284328 -1.277350 -8.539624 -3.048029 -9.636593 33.318848 4.744617 3.523792 52.246412 3.180561 8.806242 -8.828647 10.561694 -5.648292 9.699043 -4.413139 -3.104214 11.083242 8.547811 -3.338159 
0.005007 0.000665 -0.003886 176.329499 32.446588 -26.463411 0.108446 4.244450 18.924386 1.894735 -14.355740 -3.811950 4.723819 4.485361 -3.982846 -10.780386 8.445970 -1.651896 -1.083172 -4.681227 22.931402 -2.093115 2.400490 -3.820960 -8.312444 -6.263702 -8.214196 15.133714 -5.713094 11.467095 0.950631 0.610856 6.110802 0.915731 -5.055754 7.933297 -0.306490 -3.439664 -1.088856 -1.305953 -16.276575 10.322002 -1.224080 -18.180453 -0.314185 -31.902809 0.406137 7.099745 -50.873244 -5.671685 8.597982 1.780499 -15.571907 16.605098 -14.946928 4.333683 -0.701565 -8.749710 -3.100893 -9.864732 33.302920 4.605657 3.546141 51.860375 2.869319 8.395226 -9.005500 9.880124 -5.913261 9.688986 -4.404563 -3.099816 11.222802 8.604945 -3.490036 
0.007746 0.000845 -0.005251 176.347752 32.213524 -26.659783 0.241052 4.216874 18.972705 1.848933 -14.211804 -3.747100 4.829955 4.669506 -3.804321 -10.877946 8.367945 -1.663165 -1.115337 -4.753659 22.943546 -1.900418 2.656068 -3.804308 -8.467304 -6.284706 -8.067071 15.243319 -5.518817 11.554817 1.039549 0.679287 5.962378 0.851790 -5.009886 8.103303 -0.327873 -3.330657 -1.083578 -1.249006 -16.404788 10.163728 -0.907362 -18.106980 -0.419760 -31.881197 -0.245345 7.274501 -50.694816 -5.732653 8.730486 1.284157 -14.881645 17.114988 -15.076509 4.327824 -0.592024 -8.702739 -3.097060 -9.873815 33.077542 5.304882 4.148331 51.370393 2.638456 8.828817 -7.850769 9.147186 -4.138483 9.846825 -4.559006 -2.170095 11.169400 8.619820 -3.625641 
0.010541 0.001100 -0.006674 176.309570 31.807750 -26.830057 0.393114 4.220568 18.866534 1.878547 -14.001933 -3.476685 4.749800 4.872719 -3.688170 -10.739013 8.313590 -1.820280 -1.064733 -4.772182 22.726760 -1.701185 2.739424 -3.408822 -8.596749 -6.281635 -8.405573 15.338650 -5.389854 11.636373 1.169096 0.699867 5.994323 0.882961 -4.881984 8.128655 -0.265430 -3.201020 -1.059461 -1.274505 -16.355923 10.195082 -0.978014 -18.104424 -0.069838 -31.921020 -0.514661 7.290324 -50.798115 -5.813108 8.874974 1.115513 -15.020359 17.366041 -14.926782 4.218454 -0.567596 -8.554457 -3.040172 -9.713757 33.080786 5.835391 4.491331 51.015808 2.724132 9.268462 -7.074820 8.946485 -2.818279 9.722496 -4.560843 -1.323780 11.027129 8.579653 -3.631246 
0.012355 0.001679 -0.007723 176.347365 32.174265 -27.104284 0.388428 4.242508 19.219507 1.929123 -14.341853 -3.788530 4.381572 4.804991 -3.317983 -10.275711 8.181162 -2.205158 -1.192636 -4.751278 22.283656 -1.499337 2.233332 -1.825480 -8.782136 -6.741679 -9.266900 15.464501 -5.305236 11.500777 1.235618 0.433350 5.968361 0.776052 -4.864399 8.110582 -0.343905 -3.261232 -0.972142 -1.787148 -15.187095 10.692350 -1.801222 -17.200373 0.515155 -31.612596 -0.508254 7.494565 -50.753388 -5.572465 9.005865 0.995167 -15.809203 17.852678 -14.749406 3.966732 -0.777335 -8.341716 -2.881156 -9.639190 33.097423 5.866182 4.712460 51.388093 2.719018 9.780595 -6.732093 10.054940 -1.829814 9.638764 -4.360357 -1.345527 10.757542 8.434448 -3.498137 
0.011449 0.001860 -0.008567 176.167771 34.914496 -27.443424 0.042136 3.955698 18.680784 1.658788 -15.379607 -2.955711 4.212235 3.667533 -3.218480 -10.532455 7.984151 -2.835388 -1.732528 -5.807997 22.487503 -1.558592 0.694798 -1.460256 -8.527243 -7.231546 -8.918019 15.236160 -4.957566 11.093146 1.165887 0.597663 5.926549 0.480947 -4.606714 7.442248 -0.466397 -3.177736 -0.852327 -3.220779 -11.102207 12.671268 -4.024600 -13.346267 2.375482 -30.856965 0.363849 7.380583 -50.178421 -5.410252 9.071124 0.570797 -17.760052 19.491701 -14.634016 3.643139 -0.616603 -8.596455 -3.053061 -9.512902 33.399538 4.152523 4.767523 52.066262 2.395002 9.418649 -7.448083 10.557775 -2.857013 9.536197 -3.983173 -2.159352 11.226583 8.512539 -3.323811 
0.009668 0.003328 -0.012370 175.511922 40.584845 -27.961691 -1.377605 2.600943 17.254715 1.565139 -17.548624 -1.192736 4.199907 2.200328 -3.253239 -10.779029 8.204836 -3.983103 -2.503065 -7.262921 23.077496 -1.825937 -1.542400 -1.284238 -7.821855 -9.002428 -8.632218 14.154000 -3.700733 10.290662 1.478545 1.471861 6.111083 -0.178759 -3.459887 6.535528 -0.500575 -2.484878 -0.485102 -4.572938 -3.780089 15.665145 -6.716994 -5.671258 5.139958 -30.493859 1.674690 6.402696 -50.157943 -6.206963 7.633754 1.905322 -16.739380 16.616938 -14.726178 3.695747 -2.326402 -8.087639 -3.309228 -8.298486 33.593850 2.001329 5.498369 52.716529 2.095267 9.096198 -7.713360 8.873860 -5.490656 9.867480 -3.821221 -3.683358 11.268828 8.398646 -2.620757 
0.013625 0.011468 -0.024904 172.179734 49.503303 -30.529624 -3.875067 -1.860680 8.304929 -1.126135 -18.896530 14.315115 7.245830 1.565906 -7.870839 -14.050604 9.327921 -5.686674 -2.504080 -9.485094 22.923470 -1.741232 -5.138579 -0.125517 -8.716157 -11.324883 -9.030979 14.202734 -3.518057 10.587357 2.806743 2.970932 9.872696 -0.528320 -2.670636 4.646884 -0.008862 -1.490985 0.071522 -5.328212 4.007966 18.121208 -8.439119 3.941153 7.091145 -30.642365 1.110719 6.040685 -49.690280 -7.026060 6.705607 2.852023 -17.952113 16.164871 -15.261723 4.211478 -3.745990 -7.564655 -3.592978 -6.494362 33.602070 1.840415 7.222118 52.667030 2.353721 8.694463 -7.322909 7.269063 -6.821006 10.134234 -3.786329 -4.848939 11.367462 8.611862 -1.649281 
0.021040 0.022981 -0.036537 164.628814 59.400859 -37.276410 -3.227596 -3.750846 -3.862040 -4.849728 -11.368979 32.412963 8.234710 2.250611 -8.603486 -15.633353 10.321480 -8.773317 -2.423880 -12.330957 23.464449 -1.127450 -9.086644 0.810296 -10.766362 -14.081883 -9.827985 14.263659 -3.666845 10.489260 4.645345 4.529288 14.408350 -0.422512 -2.426518 3.306438 0.467855 -0.763218 0.975519 -5.758213 4.680765 18.703260 -7.661500 6.975245 8.696521 -30.558167 0.239676 6.135946 -49.348229 -7.452637 5.997311 3.087664 -20.334633 17.519200 -14.727341 4.444698 -3.871961 -6.632549 -3.467155 -5.367535 32.462291 2.814263 8.503893 51.672658 2.193718 8.337628 -6.570928 7.910934 -5.736955 8.920331 -3.757101 -4.198652 10.650394 8.508451 -0.861518 
0.019948 0.025669 -0.046266 159.792733 65.079503 -41.416442 -0.739440 -3.129743 -11.353206 -3.214782 -5.122713 36.634170 7.546619 4.508289 -6.875019 -13.320289 11.206378 -9.506591 -3.580579 -13.647810 22.885201 -1.259953 -11.271179 2.647807 -11.066762 -15.859324 -9.336055 13.917780 -4.202937 9.173838 4.351735 5.293823 16.780913 -0.911147 -2.216248 2.251521 0.361015 -0.624970 1.786352 -5.497863 3.362881 18.999604 -7.012182 6.493503 10.282360 -29.832483 1.826043 5.872533 -49.157187 -6.619045 4.782375 4.051001 -18.527740 16.316728 -13.642830 4.697047 -3.391411 -5.382075 -3.217338 -5.764572 30.997412 2.873314 7.867991 50.624631 3.876692 8.596301 -6.357689 8.613196 -5.440270 6.955598 -3.493946 -2.926671 9.560987 8.038624 -0.918676 
0.005425 0.026718 -0.058029 161.818201 65.117356 -38.818343 4.218355 -2.293068 -13.457105 -2.672066 -6.860327 30.794127 2.814974 3.180948 -2.512572 -7.787450 11.541209 -9.697629 -6.223660 -13.650459 22.792569 -0.830551 -10.381205 2.936344 -10.934231 -15.441227 -9.548943 14.262169 -5.715738 8.202972 3.892276 5.962022 17.101865 -1.986778 -1.657473 3.199798 -0.138997 -0.178198 1.648134 -5.351497 4.531870 19.358051 -7.223505 6.160512 10.050171 -29.603461 3.128696 5.534968 -48.768281 -4.637094 4.229153 4.809778 -14.160481 13.684312 -12.176802 4.914483 -3.254918 -5.443799 -3.056264 -7.573628 29.831362 3.117515 7.640988 49.822945 6.645912 8.572405 -7.412206 12.543223 -6.158832 5.315644 -2.688748 -3.296271 9.393013 7.662239 -1.703719 
